<?xml version="1.0" encoding="UTF-8"?>
<svg id="Layer_1" data-name="Layer 1" xmlns="http://www.w3.org/2000/svg" viewBox="0 0 1254.41 849.38">
  <defs>
    <style>
      .cls-1 {
        fill: #fccf13;
      }

      .cls-2 {
        fill: #231f20;
      }
    </style>
  </defs>
  <path class="cls-2" d="m495.65,470.4c-6.54,0-12.75-2.4-17.62-6.83-5.18-4.71-8.21-11.16-8.54-18.16-.33-7,2.09-13.7,6.8-18.87,4.71-5.18,11.16-8.22,18.16-8.54,2.35-.15,4.09,1.61,4.19,3.81.1,2.21-1.6,4.08-3.81,4.18-4.86.23-9.34,2.34-12.61,5.93-3.27,3.6-4.95,8.26-4.72,13.11.23,4.86,2.33,9.34,5.93,12.62,3.6,3.27,8.3,4.85,13.11,4.72,2.31-.27,4.08,1.6,4.19,3.81s-1.6,4.08-3.81,4.18c-.42.02-.84.03-1.26.03Z"/>
  <path class="cls-2" d="m536.94,559.82c-6.47,0-12.96-2.37-18.02-7.15-10.5-9.93-10.98-26.55-1.05-37.07,1.51-1.59,4.04-1.68,5.66-.16,1.61,1.52,1.68,4.05.16,5.66-6.9,7.29-6.57,18.85.73,25.75,7.31,6.9,18.9,6.57,25.81-.75,1.52-1.59,4.04-1.68,5.66-.16,1.61,1.52,1.68,4.05.16,5.66-5.16,5.46-12.13,8.22-19.11,8.22Z"/>
  <path class="cls-2" d="m438.6,499.81c-1.61,0-3.14-.99-3.75-2.59-1.77-4.67-2.67-9.59-2.67-14.62,0-22.76,18.51-41.27,41.27-41.27,2.21,0,4,1.79,4,4s-1.79,4-4,4c-18.34,0-33.27,14.93-33.27,33.27,0,4.06.72,8.03,2.15,11.79.78,2.06-.26,4.38-2.33,5.16-.47.17-.95.26-1.42.26Z"/>
  <path class="cls-2" d="m448.54,532.72c-12.11,0-21.96-9.85-21.96-21.95s9.85-21.96,21.96-21.96,21.96,9.85,21.96,21.96c0,2.21-1.79,4-4,4s-4-1.79-4-4c0-7.69-6.26-13.96-13.95-13.96s-13.95,6.26-13.95,13.96,6.26,13.95,13.95,13.95c2.21,0,4,1.79,4,4s-1.79,4-4,4Z"/>
  <path class="cls-2" d="m515.69,596.22c-1.72,0-3.31-1.11-3.83-2.84-8.11-26.74,6.04-45.31,6.65-46.09,1.35-1.74,3.85-2.04,5.6-.7,1.74,1.35,2.06,3.86.72,5.61-.5.66-12.18,16.22-5.31,38.85.64,2.12-.56,4.35-2.67,5-.39.12-.78.17-1.16.17Z"/>
  <path class="cls-2" d="m518.67,635.14c-15.22,0-30.58-3.95-37.2-8.91-1.01-.76-1.6-1.95-1.6-3.21,0-19.41,17.46-33.88,33.13-34.72,12.63-.7,22.53,2.4,29.34,9.18,9.69,9.63,9.55,23.13,9.43,25.74-.05,1.08-.54,2.09-1.35,2.81-7.45,6.58-19.56,9.11-31.76,9.11Zm-30.71-14.24c10.61,5.86,41.96,10.36,55.82.2-.11-3.65-1.08-11.98-7.08-17.94-5.14-5.11-13.03-7.44-23.26-6.86-9.99.54-24.23,9.55-25.48,24.6Zm59.82,2.13h.08-.08Z"/>
  <path class="cls-2" d="m758.77,470.4c-.42,0-.84,0-1.27-.03-2.21-.1-3.92-1.98-3.81-4.18.1-2.2,1.95-4.1,4.18-3.81,4.85.16,9.52-1.45,13.11-4.72,3.6-3.28,5.7-7.76,5.93-12.62.23-4.86-1.45-9.52-4.73-13.11s-7.76-5.71-12.61-5.93c-2.2-.1-3.92-1.97-3.81-4.18.09-2.2,2.06-4.06,4.18-3.81,14.43.67,25.64,12.96,24.96,27.41-.33,7-3.36,13.45-8.54,18.16-4.86,4.43-11.08,6.83-17.61,6.83Z"/>
  <path class="cls-2" d="m717.55,559.72c-6.97,0-13.91-2.75-19.06-8.19-1.52-1.61-1.45-4.14.16-5.66,1.6-1.53,4.14-1.44,5.66.16,6.9,7.3,18.45,7.62,25.75.73,3.53-3.35,5.57-7.88,5.72-12.75.16-4.87-1.6-9.5-4.93-13.03-1.52-1.61-1.45-4.14.16-5.66,1.61-1.53,4.14-1.45,5.66.16,4.81,5.09,7.34,11.76,7.12,18.78-.22,7-3.14,13.51-8.23,18.32-5.06,4.78-11.54,7.15-18,7.15Z"/>
  <path class="cls-2" d="m815.8,499.81c-.47,0-.95-.09-1.42-.26-2.07-.78-3.11-3.1-2.33-5.16,1.43-3.76,2.15-7.73,2.15-11.79,0-18.34-14.93-33.27-33.27-33.27-2.21,0-4-1.79-4-4s1.79-4,4-4c22.76,0,41.27,18.51,41.27,41.27,0,5.04-.9,9.95-2.67,14.62-.61,1.6-2.13,2.59-3.75,2.59Z"/>
  <path class="cls-2" d="m805.87,532.72c-2.21,0-4-1.79-4-4s1.79-4,4-4c7.69,0,13.95-6.25,13.95-13.95s-6.25-13.96-13.95-13.96-13.96,6.26-13.96,13.96c0,2.21-1.79,4-4,4s-4-1.79-4-4c0-12.11,9.85-21.96,21.96-21.96s21.95,9.85,21.95,21.96-9.85,21.95-21.95,21.95Z"/>
  <path class="cls-2" d="m738.72,596.22c-.38,0-.77-.05-1.16-.17-2.11-.64-3.31-2.88-2.67-5,6.92-22.81-5.18-38.68-5.3-38.83-1.36-1.74-1.05-4.26.7-5.62,1.74-1.37,4.26-1.05,5.62.7.6.78,14.75,19.35,6.65,46.09-.52,1.73-2.11,2.84-3.83,2.84Z"/>
  <path class="cls-2" d="m735.73,635.14c-12.2,0-24.3-2.53-31.76-9.11-.81-.72-1.29-1.73-1.35-2.81-.13-2.61-.27-16.1,9.43-25.74,6.82-6.78,16.68-9.87,29.35-9.18,15.67.84,33.13,15.31,33.13,34.72,0,1.26-.59,2.45-1.6,3.21-6.61,4.96-21.98,8.91-37.2,8.91Zm-25.11-14.03c13.85,10.15,45.21,5.64,55.82-.2-1.24-15.05-15.49-24.07-25.47-24.6-10.29-.54-18.13,1.76-23.27,6.86-6,5.97-6.96,14.29-7.08,17.94Z"/>
  <g>
    <circle class="cls-2" cx="562.87" cy="440.4" r="12.54"/>
    <path class="cls-2" d="m562.87,456.94c-9.12,0-16.54-7.42-16.54-16.54s7.42-16.54,16.54-16.54,16.54,7.42,16.54,16.54-7.42,16.54-16.54,16.54Zm0-25.07c-4.71,0-8.53,3.82-8.53,8.53s3.83,8.53,8.53,8.53,8.53-3.82,8.53-8.53-3.83-8.53-8.53-8.53Z"/>
  </g>
  <g>
    <circle class="cls-2" cx="691.79" cy="440.4" r="12.54"/>
    <path class="cls-2" d="m691.79,456.94c-9.12,0-16.54-7.42-16.54-16.54s7.42-16.54,16.54-16.54,16.54,7.42,16.54,16.54-7.42,16.54-16.54,16.54Zm0-25.07c-4.7,0-8.53,3.82-8.53,8.53s3.83,8.53,8.53,8.53,8.53-3.82,8.53-8.53-3.83-8.53-8.53-8.53Z"/>
  </g>
  <path class="cls-2" d="m627.05,498.92c-32.06,0-65.17-3.35-86.74-10.26-.38-.13-.73-.3-1.05-.52-12.85-8.88-17.26-25.43-18.69-37.74-2.26-19.45,1.44-42.81,7.92-49.98,23.73-26.28,165.06-22.46,194.94-.55h0c9.09,6.67,11.61,25.85,11.01,40.23-.91,21.55-8.18,38.53-19.46,45.44-14.37,8.8-50.43,13.38-87.93,13.38Zm-83.71-17.7c44.59,14.01,142.77,12.6,167.45-2.51,10.6-6.49,15.03-24.37,15.64-38.94.73-17.5-3.45-30.29-7.75-33.45h0c-26.26-19.27-163.34-23.7-184.26-.55-3.44,3.81-8.29,23.28-5.91,43.7,1.22,10.51,4.79,24.46,14.82,31.74Z"/>
  <path class="cls-1" d="m740.3,291.94c-.07,0-.15,0-.22,0-.2,0-6.09-.23-68.06-.3-2.21,0-4-1.8-4-4.01,0-2.2,1.79-4,4-4h0c63.26.06,68.31.3,68.49.31,2.21.12,3.9,2.01,3.78,4.21-.12,2.13-1.88,3.78-4,3.78Z"/>
  <path class="cls-1" d="m514.11,291.94c-2.21,0-4-1.79-4-4s1.79-4,4-4l1.85-.02c7.1-.06,33.27-.3,70-.29,2.21,0,4,1.8,4,4s-1.79,4-4,4h0c-36.63.02-62.83.23-69.92.29l-1.92.02Z"/>
  <path class="cls-2" d="m627.21,575.27c-75.82,0-137.5-61.68-137.5-137.5s61.68-137.5,137.5-137.5,137.5,61.68,137.5,137.5-61.68,137.5-137.5,137.5Zm0-266.99c-71.4,0-129.49,58.09-129.49,129.49s58.09,129.49,129.49,129.49,129.49-58.09,129.49-129.49-58.09-129.49-129.49-129.49Z"/>
  <path class="cls-2" d="m491.9,314.16c-14.46,0-26.22-11.76-26.22-26.22s11.76-26.22,26.22-26.22,26.22,11.76,26.22,26.22-11.76,26.22-26.22,26.22Zm0-44.42c-10.04,0-18.21,8.17-18.21,18.21s8.17,18.21,18.21,18.21,18.21-8.17,18.21-18.21-8.17-18.21-18.21-18.21Z"/>
  <path class="cls-2" d="m534.53,345.74c-1.23,0-2.44-.56-3.22-1.63l-27.69-37.46c-1.32-1.77-.94-4.28.84-5.6,1.77-1.31,4.29-.93,5.6.84l27.69,37.46c1.32,1.77.94,4.28-.84,5.6-.72.52-1.55.78-2.38.78Z"/>
  <path class="cls-2" d="m762.51,314.16c-14.46,0-26.22-11.76-26.22-26.22s11.76-26.22,26.22-26.22,26.22,11.76,26.22,26.22-11.77,26.22-26.22,26.22Zm0-44.42c-10.04,0-18.21,8.17-18.21,18.21s8.17,18.21,18.21,18.21,18.22-8.17,18.22-18.21-8.17-18.21-18.22-18.21Z"/>
  <path class="cls-2" d="m719.88,345.74c-.82,0-1.66-.26-2.38-.78-1.77-1.31-2.15-3.82-.84-5.6l27.68-37.46c1.33-1.78,3.84-2.13,5.6-.84,1.78,1.31,2.16,3.82.84,5.6l-27.69,37.46c-.79,1.06-2,1.63-3.23,1.63Z"/>
  <path class="cls-1" d="m672.02,291.63c-1.65,0-3.19-1.02-3.78-2.67l-8.52-24.15-8.8,24.19c-.6,1.64-2.26,2.76-3.94,2.63-1.75-.08-3.24-1.29-3.69-2.98l-14.38-54.9-14.98,54.94c-.46,1.67-1.94,2.86-3.68,2.94-1.76.23-3.32-.96-3.93-2.6l-8.69-23.27-7.89,23.16c-.71,2.1-2.98,3.19-5.08,2.5-2.09-.71-3.21-2.99-2.5-5.08l11.5-33.78c.54-1.6,2.04-2.69,3.73-2.71,1.83.12,3.22,1.01,3.81,2.6l8.27,22.14,15.65-57.41c.48-1.75,2.1-2.71,3.88-2.95,1.81,0,3.39,1.24,3.85,2.99l14.93,56.98,8.23-22.63c.57-1.58,2.08-2.63,3.76-2.63h.02c1.69,0,3.19,1.08,3.76,2.67l12.24,34.69c.73,2.08-.36,4.37-2.44,5.11-.44.16-.89.23-1.33.23Z"/>
</svg>